<mxfile host="app.diagrams.net" modified="2023-12-20T00:39:36.291Z" agent="Mozilla/5.0 (Windows NT 10.0; Win64; x64) AppleWebKit/537.36 (KHTML, like Gecko) Chrome/120.0.0.0 Safari/537.36" etag="CBW9-JS48o4hxA-v13bN" version="22.1.11" type="device">
  <diagram id="C5RBs43oDa-KdzZeNtuy" name="Page-1">
    <mxGraphModel dx="1793" dy="2149" grid="1" gridSize="10" guides="1" tooltips="1" connect="1" arrows="1" fold="1" page="1" pageScale="1" pageWidth="827" pageHeight="1169" math="0" shadow="0">
      <root>
        <mxCell id="WIyWlLk6GJQsqaUBKTNV-0" />
        <mxCell id="WIyWlLk6GJQsqaUBKTNV-1" parent="WIyWlLk6GJQsqaUBKTNV-0" />
        <mxCell id="o1KFUSoeTvBDRn-8kvO2-1" value="" style="edgeStyle=orthogonalEdgeStyle;rounded=0;orthogonalLoop=1;jettySize=auto;html=1;" edge="1" parent="WIyWlLk6GJQsqaUBKTNV-1" source="S7_N-UKr1pL8a_zZHFVc-5" target="o1KFUSoeTvBDRn-8kvO2-0">
          <mxGeometry relative="1" as="geometry" />
        </mxCell>
        <mxCell id="S7_N-UKr1pL8a_zZHFVc-5" value="Начало" style="strokeWidth=2;html=1;shape=mxgraph.flowchart.terminator;whiteSpace=wrap;" parent="WIyWlLk6GJQsqaUBKTNV-1" vertex="1">
          <mxGeometry x="360" y="-70" width="100" height="60" as="geometry" />
        </mxCell>
        <mxCell id="S7_N-UKr1pL8a_zZHFVc-6" value="Конец" style="strokeWidth=2;html=1;shape=mxgraph.flowchart.terminator;whiteSpace=wrap;" parent="WIyWlLk6GJQsqaUBKTNV-1" vertex="1">
          <mxGeometry x="360" y="1050" width="100" height="60" as="geometry" />
        </mxCell>
        <mxCell id="tAWyhYt2iqQ36pVHwljJ-4" style="edgeStyle=orthogonalEdgeStyle;rounded=0;orthogonalLoop=1;jettySize=auto;html=1;fontFamily=Helvetica;fontSize=12;fontColor=default;" parent="WIyWlLk6GJQsqaUBKTNV-1" source="tAWyhYt2iqQ36pVHwljJ-0" edge="1">
          <mxGeometry relative="1" as="geometry">
            <mxPoint x="410" y="110" as="targetPoint" />
            <Array as="points">
              <mxPoint x="409" y="310" />
              <mxPoint x="279" y="310" />
              <mxPoint x="279" y="110" />
            </Array>
          </mxGeometry>
        </mxCell>
        <mxCell id="tAWyhYt2iqQ36pVHwljJ-0" value="Ввод&amp;nbsp;string" style="shape=parallelogram;html=1;strokeWidth=2;perimeter=parallelogramPerimeter;whiteSpace=wrap;rounded=1;arcSize=12;size=0.23;" parent="WIyWlLk6GJQsqaUBKTNV-1" vertex="1">
          <mxGeometry x="310" y="230" width="200" height="60" as="geometry" />
        </mxCell>
        <mxCell id="tAWyhYt2iqQ36pVHwljJ-7" value="Да" style="edgeStyle=orthogonalEdgeStyle;rounded=0;orthogonalLoop=1;jettySize=auto;html=1;fontFamily=Helvetica;fontSize=12;fontColor=default;" parent="WIyWlLk6GJQsqaUBKTNV-1" source="tAWyhYt2iqQ36pVHwljJ-1" target="tAWyhYt2iqQ36pVHwljJ-0" edge="1">
          <mxGeometry x="-0.6" y="16" relative="1" as="geometry">
            <mxPoint as="offset" />
          </mxGeometry>
        </mxCell>
        <mxCell id="tAWyhYt2iqQ36pVHwljJ-11" value="Нет" style="edgeStyle=orthogonalEdgeStyle;rounded=0;orthogonalLoop=1;jettySize=auto;html=1;exitX=1;exitY=0.5;exitDx=0;exitDy=0;exitPerimeter=0;fontFamily=Helvetica;fontSize=12;fontColor=default;entryX=0.5;entryY=0;entryDx=0;entryDy=0;entryPerimeter=0;" parent="WIyWlLk6GJQsqaUBKTNV-1" source="tAWyhYt2iqQ36pVHwljJ-1" target="o1KFUSoeTvBDRn-8kvO2-5" edge="1">
          <mxGeometry x="-0.8913" y="10" relative="1" as="geometry">
            <mxPoint x="430" y="340" as="targetPoint" />
            <Array as="points">
              <mxPoint x="549" y="160" />
              <mxPoint x="549" y="320" />
              <mxPoint x="410" y="320" />
            </Array>
            <mxPoint as="offset" />
          </mxGeometry>
        </mxCell>
        <mxCell id="tAWyhYt2iqQ36pVHwljJ-1" value="len(string.split()) == 0" style="strokeWidth=2;html=1;shape=mxgraph.flowchart.decision;whiteSpace=wrap;" parent="WIyWlLk6GJQsqaUBKTNV-1" vertex="1">
          <mxGeometry x="310" y="130" width="200" height="60" as="geometry" />
        </mxCell>
        <mxCell id="tAWyhYt2iqQ36pVHwljJ-34" value="" style="edgeStyle=orthogonalEdgeStyle;rounded=0;orthogonalLoop=1;jettySize=auto;html=1;fontFamily=Helvetica;fontSize=12;fontColor=default;entryX=0.5;entryY=0;entryDx=0;entryDy=0;" parent="WIyWlLk6GJQsqaUBKTNV-1" source="tAWyhYt2iqQ36pVHwljJ-12" target="o1KFUSoeTvBDRn-8kvO2-9" edge="1">
          <mxGeometry relative="1" as="geometry">
            <mxPoint x="410" y="880" as="targetPoint" />
          </mxGeometry>
        </mxCell>
        <mxCell id="tAWyhYt2iqQ36pVHwljJ-12" value="&lt;div&gt;string_list = string.split()&lt;/div&gt;&lt;div&gt;res = []&lt;/div&gt;" style="rounded=1;whiteSpace=wrap;html=1;absoluteArcSize=1;arcSize=14;strokeWidth=2;strokeColor=default;align=center;verticalAlign=middle;fillColor=default;" parent="WIyWlLk6GJQsqaUBKTNV-1" vertex="1">
          <mxGeometry x="310" y="570" width="200" height="60" as="geometry" />
        </mxCell>
        <mxCell id="tAWyhYt2iqQ36pVHwljJ-29" value="" style="edgeStyle=orthogonalEdgeStyle;rounded=0;orthogonalLoop=1;jettySize=auto;html=1;fontFamily=Helvetica;fontSize=12;fontColor=default;" parent="WIyWlLk6GJQsqaUBKTNV-1" source="tAWyhYt2iqQ36pVHwljJ-28" target="S7_N-UKr1pL8a_zZHFVc-6" edge="1">
          <mxGeometry relative="1" as="geometry" />
        </mxCell>
        <mxCell id="tAWyhYt2iqQ36pVHwljJ-28" value="&lt;div&gt;Вывести&amp;nbsp;res&lt;/div&gt;" style="shape=parallelogram;html=1;strokeWidth=2;perimeter=parallelogramPerimeter;whiteSpace=wrap;rounded=1;arcSize=12;size=0.23;" parent="WIyWlLk6GJQsqaUBKTNV-1" vertex="1">
          <mxGeometry x="310" y="950" width="200" height="60" as="geometry" />
        </mxCell>
        <mxCell id="o1KFUSoeTvBDRn-8kvO2-2" value="" style="edgeStyle=orthogonalEdgeStyle;rounded=0;orthogonalLoop=1;jettySize=auto;html=1;" edge="1" parent="WIyWlLk6GJQsqaUBKTNV-1" source="o1KFUSoeTvBDRn-8kvO2-0" target="tAWyhYt2iqQ36pVHwljJ-1">
          <mxGeometry relative="1" as="geometry" />
        </mxCell>
        <mxCell id="o1KFUSoeTvBDRn-8kvO2-0" value="string = &quot;&quot;&lt;br&gt;letter = &quot;&quot;" style="rounded=1;whiteSpace=wrap;html=1;absoluteArcSize=1;arcSize=14;strokeWidth=2;strokeColor=default;align=center;verticalAlign=middle;fillColor=default;" vertex="1" parent="WIyWlLk6GJQsqaUBKTNV-1">
          <mxGeometry x="310" y="20" width="200" height="60" as="geometry" />
        </mxCell>
        <mxCell id="o1KFUSoeTvBDRn-8kvO2-3" value="Ввод&amp;nbsp;letter" style="shape=parallelogram;html=1;strokeWidth=2;perimeter=parallelogramPerimeter;whiteSpace=wrap;rounded=1;arcSize=12;size=0.23;" vertex="1" parent="WIyWlLk6GJQsqaUBKTNV-1">
          <mxGeometry x="310" y="440" width="200" height="60" as="geometry" />
        </mxCell>
        <mxCell id="o1KFUSoeTvBDRn-8kvO2-4" value="Да" style="edgeStyle=orthogonalEdgeStyle;rounded=0;orthogonalLoop=1;jettySize=auto;html=1;fontFamily=Helvetica;fontSize=12;fontColor=default;" edge="1" source="o1KFUSoeTvBDRn-8kvO2-5" target="o1KFUSoeTvBDRn-8kvO2-3" parent="WIyWlLk6GJQsqaUBKTNV-1">
          <mxGeometry x="0.6667" y="20" relative="1" as="geometry">
            <mxPoint as="offset" />
          </mxGeometry>
        </mxCell>
        <mxCell id="o1KFUSoeTvBDRn-8kvO2-5" value="len(letter) != 1 ИЛИ&lt;br&gt;len(letter.split()) == 0" style="strokeWidth=2;html=1;shape=mxgraph.flowchart.decision;whiteSpace=wrap;" vertex="1" parent="WIyWlLk6GJQsqaUBKTNV-1">
          <mxGeometry x="310" y="350" width="200" height="70" as="geometry" />
        </mxCell>
        <mxCell id="o1KFUSoeTvBDRn-8kvO2-6" style="edgeStyle=orthogonalEdgeStyle;rounded=0;orthogonalLoop=1;jettySize=auto;html=1;fontFamily=Helvetica;fontSize=12;fontColor=default;" edge="1" parent="WIyWlLk6GJQsqaUBKTNV-1">
          <mxGeometry relative="1" as="geometry">
            <mxPoint x="410" y="330" as="targetPoint" />
            <Array as="points">
              <mxPoint x="409" y="520" />
              <mxPoint x="279" y="520" />
              <mxPoint x="279" y="330" />
              <mxPoint x="410" y="330" />
            </Array>
            <mxPoint x="409" y="500" as="sourcePoint" />
          </mxGeometry>
        </mxCell>
        <mxCell id="o1KFUSoeTvBDRn-8kvO2-8" value="Нет" style="edgeStyle=orthogonalEdgeStyle;rounded=0;orthogonalLoop=1;jettySize=auto;html=1;fontFamily=Helvetica;fontSize=12;fontColor=default;entryX=0.5;entryY=0;entryDx=0;entryDy=0;entryPerimeter=0;" edge="1" parent="WIyWlLk6GJQsqaUBKTNV-1">
          <mxGeometry x="-0.8913" y="10" relative="1" as="geometry">
            <mxPoint x="410" y="570" as="targetPoint" />
            <Array as="points">
              <mxPoint x="510" y="386" />
              <mxPoint x="549" y="386" />
              <mxPoint x="549" y="540" />
              <mxPoint x="410" y="540" />
            </Array>
            <mxPoint as="offset" />
            <mxPoint x="510" y="386" as="sourcePoint" />
          </mxGeometry>
        </mxCell>
        <mxCell id="o1KFUSoeTvBDRn-8kvO2-11" value="" style="edgeStyle=orthogonalEdgeStyle;rounded=0;orthogonalLoop=1;jettySize=auto;html=1;" edge="1" parent="WIyWlLk6GJQsqaUBKTNV-1" source="o1KFUSoeTvBDRn-8kvO2-9" target="o1KFUSoeTvBDRn-8kvO2-10">
          <mxGeometry relative="1" as="geometry" />
        </mxCell>
        <mxCell id="o1KFUSoeTvBDRn-8kvO2-21" style="edgeStyle=orthogonalEdgeStyle;rounded=0;orthogonalLoop=1;jettySize=auto;html=1;entryX=0.5;entryY=0;entryDx=0;entryDy=0;" edge="1" parent="WIyWlLk6GJQsqaUBKTNV-1" source="o1KFUSoeTvBDRn-8kvO2-9" target="tAWyhYt2iqQ36pVHwljJ-28">
          <mxGeometry relative="1" as="geometry">
            <mxPoint x="580" y="930" as="targetPoint" />
            <Array as="points">
              <mxPoint x="560" y="680" />
              <mxPoint x="560" y="930" />
              <mxPoint x="410" y="930" />
            </Array>
          </mxGeometry>
        </mxCell>
        <mxCell id="o1KFUSoeTvBDRn-8kvO2-9" value="for word in string_list" style="shape=hexagon;perimeter=hexagonPerimeter2;whiteSpace=wrap;html=1;fixedSize=1;rounded=0;arcSize=14;strokeWidth=2;" vertex="1" parent="WIyWlLk6GJQsqaUBKTNV-1">
          <mxGeometry x="300" y="650" width="220" height="60" as="geometry" />
        </mxCell>
        <mxCell id="o1KFUSoeTvBDRn-8kvO2-19" style="edgeStyle=orthogonalEdgeStyle;rounded=0;orthogonalLoop=1;jettySize=auto;html=1;strokeColor=default;" edge="1" parent="WIyWlLk6GJQsqaUBKTNV-1" source="o1KFUSoeTvBDRn-8kvO2-10">
          <mxGeometry relative="1" as="geometry">
            <mxPoint x="240" y="770" as="targetPoint" />
          </mxGeometry>
        </mxCell>
        <mxCell id="o1KFUSoeTvBDRn-8kvO2-20" value="Нет" style="edgeLabel;html=1;align=center;verticalAlign=middle;resizable=0;points=[];" vertex="1" connectable="0" parent="o1KFUSoeTvBDRn-8kvO2-19">
          <mxGeometry x="-0.296" y="-3" relative="1" as="geometry">
            <mxPoint x="-5" y="-7" as="offset" />
          </mxGeometry>
        </mxCell>
        <mxCell id="o1KFUSoeTvBDRn-8kvO2-10" value="word[-1] == letter" style="strokeWidth=2;html=1;shape=mxgraph.flowchart.decision;whiteSpace=wrap;" vertex="1" parent="WIyWlLk6GJQsqaUBKTNV-1">
          <mxGeometry x="310" y="740" width="200" height="60" as="geometry" />
        </mxCell>
        <mxCell id="o1KFUSoeTvBDRn-8kvO2-12" value="res.append(word)" style="rounded=1;whiteSpace=wrap;html=1;absoluteArcSize=1;arcSize=14;strokeWidth=2;strokeColor=default;align=center;verticalAlign=middle;fillColor=default;" vertex="1" parent="WIyWlLk6GJQsqaUBKTNV-1">
          <mxGeometry x="310" y="830" width="200" height="60" as="geometry" />
        </mxCell>
        <mxCell id="o1KFUSoeTvBDRn-8kvO2-14" style="edgeStyle=orthogonalEdgeStyle;rounded=0;orthogonalLoop=1;jettySize=auto;html=1;fontFamily=Helvetica;fontSize=12;fontColor=default;entryX=0;entryY=0.5;entryDx=0;entryDy=0;" edge="1" parent="WIyWlLk6GJQsqaUBKTNV-1" target="o1KFUSoeTvBDRn-8kvO2-9">
          <mxGeometry relative="1" as="geometry">
            <mxPoint x="410" y="724" as="targetPoint" />
            <Array as="points">
              <mxPoint x="410" y="910" />
              <mxPoint x="240" y="910" />
              <mxPoint x="240" y="680" />
            </Array>
            <mxPoint x="410" y="890" as="sourcePoint" />
          </mxGeometry>
        </mxCell>
        <mxCell id="o1KFUSoeTvBDRn-8kvO2-17" value="Да" style="edgeStyle=orthogonalEdgeStyle;rounded=0;orthogonalLoop=1;jettySize=auto;html=1;fontFamily=Helvetica;fontSize=12;fontColor=default;entryX=0.5;entryY=0;entryDx=0;entryDy=0;" edge="1" parent="WIyWlLk6GJQsqaUBKTNV-1" target="o1KFUSoeTvBDRn-8kvO2-12">
          <mxGeometry x="-0.3194" y="20" relative="1" as="geometry">
            <mxPoint as="offset" />
            <mxPoint x="409.69" y="800" as="sourcePoint" />
            <mxPoint x="409.69" y="820" as="targetPoint" />
          </mxGeometry>
        </mxCell>
      </root>
    </mxGraphModel>
  </diagram>
</mxfile>
